# AST/ASF file generated using VICON BodyLanguage
# -----------------------------------------------
:version 1.10
:name VICON
:units
  mass 1.0
  length 0.45
  angle deg
:documentation
   .ast/.asf automatically generated from VICON data using
   VICON BodyBuilder and BodyLanguage model FoxedUp or BRILLIANT.MOD
:root
   order TX TY TZ RX RY RZ
   axis XYZ
   position 0 0 0  
   orientation 0 0 0 
:bonedata
  begin
     id 1 
     name lhipjoint
     direction 0.537252 -0.787203 0.302774 
     length 2.29576 
     axis 0 0 0  XYZ
  end
  begin
     id 2 
     name lfemur
     direction 0.34202 -0.939693 0  
     length 7.31114  
     axis 0 0 20  XYZ
    dof rx ry rz
    limits (-160.0 20.0)
           (-70.0 70.0)
           (-60.0 70.0)
  end
  begin
     id 3 
     name ltibia
     direction 0.34202 -0.939693 0   
     length 8.36008   
     axis 0 0 20   XYZ
    dof rx
    limits (-10.0 170.0)
  end
  begin
     id 4 
     name lfoot
     direction 0.0969116 -0.266263 0.959016   
     length 2.16704   
     axis -90 7.62852e-016 20   XYZ
    dof rx rz
    limits (-45.0 90.0)
           (-70.0 20.0)
  end
  begin
     id 5 
     name ltoes
     direction 1.53563e-011 -4.21779e-011 1   
     length 1.08338   
     axis -90 7.62852e-016 20   XYZ
    dof rx
    limits (-90.0 20.0)
  end
  begin
     id 6 
     name rhipjoint
     direction -0.588228 -0.754791 0.290308   
     length 2.39434  
     axis 0 0 0  XYZ 
  end
  begin
     id 7 
     name rfemur
     direction -0.34202 -0.939693 0   
     length 7.45207   
     axis 0 0 -20   XYZ
    dof rx ry rz
    limits (-160.0 20.0)
           (-70.0 70.0)
           (-70.0 60.0)
  end
  begin
     id 8 
     name rtibia
     direction -0.34202 -0.939693 0   
     length 8.03565   
     axis 0 0 -20   XYZ
    dof rx
    limits (-10.0 170.0)
 end
 begin
     id 9 
     name rfoot
     direction -0.107009 -0.294004 0.949795   
     length 2.11509  
     axis -90 -7.62852e-016 -20   XYZ
    dof rx rz
    limits (-45.0 90.0)
           (-20.0 70.0)
  end
  begin
     id 10 
     name rtoes
     direction -1.53533e-011 -4.22004e-011 1   
     length 1.05493   
     axis -90 -7.62852e-016 -20   XYZ
    dof rx
    limits (-90.0 20.0)
  end
  begin
     id 11 
     name lowerback
     direction -0.0115208 0.997969 -0.0626515   
     length 2.03153   
     axis 0 0 0   XYZ
    dof rx ry rz
    limits (-20.0 45.0)
           (-30.0 30.0)
           (-30.0 30.0)
  end
  begin
     id 12 
     name upperback
     direction -0.00423475 0.999974 -0.00583614   
     length 2.03619   
     axis 0 0 0   XYZ
    dof rx ry rz
    limits (-20.0 45.0)
           (-30.0 30.0)
           (-30.0 30.0)
  end
  begin
     id 13 
     name thorax
     direction 0.00289429 0.999728 0.0231573   
     length 2.03921   
     axis 0 0 0   XYZ
    dof rx ry rz
    limits (-20.0 45.0)
           (-30.0 30.0)
           (-30.0 30.0)
  end
  begin
     id 14 
     name lowerneck
     direction 0.0188995 0.987777 0.154721   
     length 1.78836   
     axis 0 0 0   XYZ
    dof rx ry rz
    limits (-20.0 45.0)
           (-30.0 30.0)
           (-30.0 30.0)
  end
  begin
     id 15 
     name upperneck
     direction -0.00612612 0.992995 -0.118   
     length 1.81789   
     axis 0 0 0   XYZ
    dof rx ry rz
    limits (-20.0 45.0)
           (-30.0 30.0)
           (-30.0 30.0)
  end
  begin
     id 16
     name head
     direction -0.00420226 0.998397 -0.0564482  
     length 1.82234  
     axis 0 0 0   XYZ
    dof rx ry rz
    limits (-20.0 45.0)
           (-30.0 30.0)
           (-30.0 30.0)
  end
  begin
     id 17 
     name lclavicle
     direction 0.916488 0.396539 0.0529676  
     length 3.51732  
     axis 0 0 0   XYZ
    dof ry rz
    limits (-20.0 10.0)
           (0.0 20.0)
  end
  begin
     id 18 
     name lhumerus
     direction 1 -4.4896e-011 8.36962e-028   
     length 5.45077   
     axis 180 -30 -90   XYZ
    dof rx ry rz
    limits (-60.0 90.0)
           (-90.0 90.0)
           (-90.0 90.0)
  end
  begin
     id 19
     name lradius
     direction 1 -4.48962e-011 3.01407e-027   
     length 3.05488   
     axis 180 -30 -90   XYZ
    dof rx
    limits (-10.0 170.0)
  end
  begin
     id 20
     name lwrist
     direction 1 -4.49002e-011 4.72961e-027   
     length 1.52744   
     axis -2.72261e-015 90 90   XYZ
    dof ry
    limits (-180.0 0.0)
 end
  begin
     id 21 
     name lhand
     direction 1 -4.4899e-011 9.45681e-027   
     length 0.638818   
     axis -6.0311e-015 90 90   XYZ
    dof rx rz
    limits (-90.0 90.0)
           (-45.0 45.0)
  end
  begin
     id 22 
     name lfingers
     direction 1 -4.48871e-011 1.88632e-026   
     length 0.515032   
     axis -1.20625e-014 90 90   XYZ
    dof rx
    limits (0.0 90.0)
  end
  begin
     id 23
     name lthumb
     direction 0.707107 -6.34964e-011 0.707107   
     length 0.739485   
     axis -90 45 6.32835e-014   XYZ
    dof rx rz
    limits (-45.0 45.0)
           (-45.0 45.0)
  end
  begin
     id 24 
     name rclavicle
     direction -0.949427 0.303202 0.0815894   
     length 3.76167  
     axis 0 0 0   XYZ 
    dof ry rz
    limits (-10.0 20.0)
           (-20.0 0.0)
  end
  begin
     id 25 
     name rhumerus
     direction -1 -4.48971e-011 -6.43969e-018  
     length 4.88702   
     axis 180 30 90   XYZ
    dof rx ry rz
    limits (-90.0 60.0)
           (-90.0 90.0)
           (-90.0 90.0)
  end
  begin
     id 26 
     name rradius
     direction -1 -4.48987e-011 5.46662e-027   
     length 3.22603   
     axis 180 30 90   XYZ
    dof rx
    limits (-10.0 170.0)
  end
  begin
     id 27 
     name rwrist
     direction -1 -4.48956e-011 4.72476e-027   
     length 1.61302   
     axis -2.72261e-015 -90 -90   XYZ
    dof ry
    limits (-180.0 0.0)
  end
  begin
     id 28
     name rhand
     direction -1 -4.4889e-011 9.43571e-027   
     length 0.716293   
     axis -6.0311e-015 -90 -90   XYZ
    dof rx rz
    limits (-90.0 90.0)
           (-45.0 45.0)
  end
  begin
     id 29
     name rfingers
     direction -1 -4.48887e-011 1.88701e-026   
     length 0.577494   
     axis -1.20625e-014 -90 -90   XYZ
    dof rx
    limits (0.0 90.0)
  end
  begin
     id 30
     name rthumb
     direction -0.707107 -6.34825e-011 0.707107   
     length 0.829169   
     axis -90 -45 -6.32835e-014   XYZ
    dof rx rz
    limits (-45.0 45.0)
           (-45.0 45.0)
  end
:hierarchy
  begin
    root lhipjoint rhipjoint lowerback
    lhipjoint lfemur
    lfemur ltibia
    ltibia lfoot
    lfoot ltoes
    rhipjoint rfemur
    rfemur rtibia
    rtibia rfoot
    rfoot rtoes
    lowerback upperback
    upperback thorax
    thorax lowerneck lclavicle rclavicle
    lowerneck upperneck
    upperneck head
    lclavicle lhumerus
    lhumerus lradius
    lradius lwrist
    lwrist lhand lthumb
    lhand lfingers
    rclavicle rhumerus
    rhumerus rradius
    rradius rwrist
    rwrist rhand rthumb
    rhand rfingers
  end

#!OML:ASF F:\VICON\USERDATA\INSTALL\rory3\rory3.ASF
:FULLY-SPECIFIED
:DEGREES
351
root 1.27744 18.5448 0.319108 163.241 86.7539 149.985
lowerback -8.37378 -0.251826 -1.07002
upperback -3.48803 -0.123137 -1.08065
thorax 1.08818 -0.0125797 -0.522357
lowerneck -21.878 -0.978484 2.04971
upperneck 13.5792 -2.08998 0.791845
head 7.74741 -0.794633 -0.330953
rclavicle 5.72748e-015 -1.05356e-014
rhumerus -26.5817 -4.10024 -23.4595
rradius 96.8968
rwrist 4.5611
rhand 0.965467 -1.35295
rfingers 7.12502
rthumb 26.5148 -29.5175
lclavicle 5.72748e-015 -1.05356e-014
lhumerus -24.4315 12.2012 18.6971
lradius 101.476
lwrist 7.77846
lhand -7.34767 42.8744
lfingers 7.12502
lthumb 18.5364 72.0113
rfemur -6.53003 -9.2107 16.0966
rtibia -1.11319e-014
rfoot -5.54211 6.24211
rtoes -12.0552
lfemur -16.0507 7.01174 -19.1296
ltibia 15.8575
lfoot -12.0449 -6.03074
ltoes -25.659
352
root 1.2763 18.5445 0.3171 163.561 86.8104 150.329
lowerback -8.36642 -0.246232 -1.03863
upperback -3.47493 -0.119571 -1.05101
thorax 1.09766 -0.0113244 -0.509114
lowerneck -21.9062 -0.943803 2.09843
upperneck 13.6906 -2.04645 0.713024
head 7.78818 -0.778055 -0.360364
rclavicle -2.45996e-015 2.78299e-015
rhumerus -26.5818 -4.09812 -23.6311
rradius 96.9204
rwrist 4.25153
rhand 0.727403 -1.31059
rfingers 7.12502
rthumb 26.2869 -29.5094
lclavicle -2.45996e-015 2.78299e-015
lhumerus -24.5797 12.0086 18.8521
lradius 101.548
lwrist 7.92859
lhand -7.40315 42.9447
lfingers 7.12502
lthumb 18.483 72.0866
rfemur -6.51406 -9.16081 16.1264
rtibia 7.15625e-015
rfoot -5.52003 6.21157
rtoes -11.9648
lfemur -16.0502 7.001 -19.0876
ltibia 15.8983
lfoot -12.0485 -5.99914
ltoes -25.4804
353
root 1.27443 18.5432 0.314299 163.827 86.8541 150.624
lowerback -8.34515 -0.244427 -1.00431
upperback -3.44976 -0.121973 -1.019
thorax 1.11191 -0.0133367 -0.495601
lowerneck -22.0142 -0.924093 2.10056
upperneck 13.85 -2.01548 0.652933
head 7.85901 -0.76708 -0.378387
rclavicle -4.76462e-015 -8.15017e-015
rhumerus -26.6348 -4.07394 -23.8115
rradius 96.9719
rwrist 4.14009
rhand 0.467762 -1.40316
rfingers 7.12502
rthumb 26.0383 -29.6388
lclavicle -4.76462e-015 -8.15017e-015
lhumerus -24.7073 11.851 18.9966
lradius 101.613
lwrist 7.94093
lhand -7.31108 42.9072
lfingers 7.12502
lthumb 18.5716 72.0407
rfemur -6.49344 -9.12239 16.1454
rtibia 3.97569e-015
rfoot -5.49425 6.18288
rtoes -11.9108
lfemur -16.0537 6.96125 -19.0526
ltibia 15.9606
lfoot -12.0609 -5.94413
ltoes -25.6099
354
root 1.27236 18.543 0.312291 163.959 86.8934 150.753
lowerback -8.35875 -0.234955 -0.982386
upperback -3.4263 -0.111708 -1.00656
thorax 1.14361 -0.0088258 -0.494222
lowerneck -22.0884 -0.899812 2.11948
upperneck 13.9216 -1.99084 0.648112
head 7.89536 -0.753528 -0.3807
rclavicle -2.61526e-015 1.21259e-014
rhumerus -26.6811 -4.14013 -24.0286
rradius 96.9431
rwrist 4.24767
rhand 0.179823 -1.22798
rfingers 7.12502
rthumb 25.7626 -29.5039
lclavicle -2.61526e-015 1.21259e-014
lhumerus -24.7837 11.7129 19.1442
lradius 101.633
lwrist 7.93236
lhand -7.14534 42.8848
lfingers 7.12502
lthumb 18.731 72.0029
rfemur -6.52163 -9.0864 16.1633
rtibia 1.19271e-014
rfoot -5.43878 6.16618
rtoes -12.2071
lfemur -16.0795 6.9773 -19.0369
ltibia 15.9953
lfoot -12.0913 -5.92196
ltoes -25.6029
355
root 1.26987 18.5431 0.310242 163.672 86.907 150.436
lowerback -8.37144 -0.254687 -1.00505
upperback -3.43666 -0.135993 -0.991739
thorax 1.13998 -0.0205201 -0.468474
lowerneck -22.1149 -0.868435 2.14519
upperneck 14.0288 -1.96205 0.664644
head 7.93611 -0.735021 -0.376294
rclavicle 1.37907e-015 -2.78299e-015
rhumerus -26.6917 -4.16755 -24.2992
rradius 96.9126
rwrist 4.36952
rhand -0.0517446 -1.15394
rfingers 7.12502
rthumb 25.5408 -29.4618
lclavicle 1.37907e-015 -2.78299e-015
lhumerus -24.9397 11.5445 19.3104
lradius 101.695
lwrist 8.01196
lhand -6.95554 42.7868
lfingers 7.12502
lthumb 18.9136 71.8873
rfemur -6.57463 -9.07088 16.1511
rtibia 1.98785e-014
rfoot -5.45227 6.15081
rtoes -12.104
lfemur -16.1345 7.06609 -19.0754
ltibia 16.0104
lfoot -12.0869 -5.9492
ltoes -25.6648
356
root 1.26753 18.5442 0.308103 161.817 86.9191 148.562
lowerback -8.39638 -0.265007 -1.09765
upperback -3.43506 -0.141359 -1.00678
thorax 1.15556 -0.0224904 -0.432538
lowerneck -22.0816 -0.854328 2.15752
upperneck 14.0805 -1.95497 0.708538
head 7.9486 -0.725588 -0.362704
rclavicle 9.59136e-015 1.05356e-014
rhumerus -26.7445 -4.16407 -24.5812
rradius 96.9715
rwrist 4.34262
rhand -0.159004 -1.34933
rfingers 7.12502
rthumb 25.4381 -29.6719
lclavicle 9.59136e-015 1.05356e-014
lhumerus -25.1173 11.3217 19.493
lradius 101.741
lwrist 8.28082
lhand -7.08041 42.677
lfingers 7.12502
lthumb 18.7935 71.7892
rfemur -6.60944 -9.03293 16.0461
rtibia -1.74931e-014
rfoot -5.46063 6.14549
rtoes -11.8337
lfemur -16.153 7.01772 -19.1774
ltibia 16.0071
lfoot -12.1913 -5.83847
ltoes -26.1654
357
root 1.26519 18.5452 0.305612 162.196 86.9315 148.968
lowerback -8.36637 -0.258136 -1.06191
upperback -3.43306 -0.135954 -1.00622
thorax 1.14099 -0.0201847 -0.451447
lowerneck -22.062 -0.848606 2.1565
upperneck 14.1683 -1.96411 0.794395
head 7.97608 -0.719409 -0.335212
rclavicle 1.80149e-016 -9.14409e-015
rhumerus -26.9129 -4.16096 -24.8295
rradius 97.1091
rwrist 4.22631
rhand -0.118529 -1.47648
rfingers 7.12502
rthumb 25.4768 -29.7935
lclavicle 1.80149e-016 -9.14409e-015
lhumerus -25.211 11.1285 19.7321
lradius 101.716
lwrist 8.50274
lhand -7.15929 42.6406
lfingers 7.12502
lthumb 18.7176 71.7601
rfemur -6.58988 -9.02601 16.0662
rtibia 1.59028e-014
rfoot -5.45621 6.14214
rtoes -11.9515
lfemur -16.1196 6.95625 -19.1466
ltibia 16.0004
lfoot -12.2707 -5.77335
ltoes -26.7723
358
root 1.26229 18.5458 0.304957 162.091 86.9482 148.862
lowerback -8.34798 -0.246338 -1.10431
upperback -3.44255 -0.117888 -0.980138
thorax 1.12121 -0.0106018 -0.399046
lowerneck -22.0219 -0.850355 2.18759
upperneck 14.1887 -1.97095 0.771534
head 7.97564 -0.723213 -0.348655
rclavicle 2.54072e-015 -5.76476e-015
rhumerus -27.104 -4.14471 -25.0316
rradius 97.1847
rwrist 4.18012
rhand -0.325114 -1.40579
rfingers 7.12502
rthumb 25.2789 -29.7509
lclavicle 2.54072e-015 -5.76476e-015
lhumerus -25.3367 10.8881 20.0438
lradius 101.72
lwrist 8.76437
lhand -7.27145 42.754
lfingers 7.12502
lthumb 18.6097 71.8838
rfemur -6.60032 -9.00678 16.0747
rtibia -4.77083e-015
rfoot -5.41783 6.10135
rtoes -12.146
lfemur -16.1149 6.95653 -19.1482
ltibia 15.964
lfoot -12.1177 -5.78277
ltoes -26.6168
359
root 1.26015 18.546 0.302783 161.005 86.9445 147.75
lowerback -8.34576 -0.239438 -1.13501
upperback -3.47578 -0.10512 -0.997542
thorax 1.08571 -0.00330028 -0.398528
lowerneck -21.9118 -0.858797 2.17817
upperneck 14.1801 -1.97808 0.781514
head 7.95459 -0.726684 -0.344065
rclavicle 1.44119e-015 1.39149e-015
rhumerus -27.2848 -4.05962 -25.2663
rradius 97.2167
rwrist 4.08636
rhand -0.554563 -1.22927
rfingers 7.12502
rthumb 25.0591 -29.6053
lclavicle 1.44119e-015 1.39149e-015
lhumerus -25.523 10.4867 20.3256
lradius 101.787
lwrist 9.09808
lhand -7.51258 42.8479
lfingers 7.12502
lthumb 18.3778 71.9998
rfemur -6.63027 -8.99573 16.0068
rtibia -1.03368e-014
rfoot -5.39393 6.09715
rtoes -12.0592
lfemur -16.1524 7.05218 -19.2356
ltibia 15.9599
lfoot -12.0156 -5.85852
ltoes -26.1635
360
root 1.25852 18.5455 0.299076 159.893 86.8614 146.656
lowerback -8.31786 -0.257776 -1.14438
upperback -3.48285 -0.127744 -1.05643
thorax 1.06292 -0.0145269 -0.45591
lowerneck -21.9238 -0.877937 2.14073
upperneck 14.2849 -2.01329 0.878649
head 7.99337 -0.733295 -0.310548
rclavicle -9.65969e-015 3.97569e-015
rhumerus -27.4867 -4.02257 -25.5692
rradius 97.2996
rwrist 3.99668
rhand -0.608507 -1.13591
rfingers 7.12502
rthumb 25.0074 -29.5191
lclavicle -9.65969e-015 3.97569e-015
lhumerus -25.7266 9.93783 20.5328
lradius 101.918
lwrist 9.32345
lhand -7.6833 43.0189
lfingers 7.12502
lthumb 18.2135 72.1862
rfemur -6.60978 -9.05656 15.8987
rtibia -4.77083e-015
rfoot -5.39577 6.0892
rtoes -12.1946
lfemur -16.1492 7.13342 -19.3589
ltibia 15.984
lfoot -11.9936 -6.01611
ltoes -25.6053
361
root 1.25666 18.5442 0.29602 161.165 86.8287 147.925
lowerback -8.32404 -0.257861 -1.04372
upperback -3.5068 -0.135086 -1.05275
thorax 1.04139 -0.0185272 -0.509294
lowerneck -21.8525 -0.890469 2.10735
upperneck 14.3682 -2.02757 0.919914
head 8.01033 -0.736579 -0.293175
rclavicle 1.963e-015 -5.76476e-015
rhumerus -27.7119 -4.02512 -25.866
rradius 97.4091
rwrist 4.0148
rhand -0.794555 -1.07057
rfingers 7.12502
rthumb 24.8291 -29.4785
lclavicle 1.963e-015 -5.76476e-015
lhumerus -25.9026 9.47894 20.8368
lradius 101.902
lwrist 9.27778
lhand -7.70345 43.0208
lfingers 7.12502
lthumb 18.1942 72.1899
rfemur -6.60978 -9.1112 15.9524
rtibia 4.77083e-015
rfoot -5.39207 6.12461
rtoes -12.0157
lfemur -16.1943 7.2111 -19.3289
ltibia 16.0228
lfoot -12.0079 -6.15222
ltoes -25.6042
362
root 1.25501 18.545 0.293959 163.224 86.847 149.964
lowerback -8.37799 -0.24889 -0.937716
upperback -3.5097 -0.131284 -1.00449
thorax 1.06802 -0.0172466 -0.518928
lowerneck -21.8807 -0.916471 2.1045
upperneck 14.471 -2.06194 0.904271
head 8.04933 -0.753014 -0.303083
rclavicle 6.63444e-015 -1.49089e-014
rhumerus -27.8221 -3.99861 -26.1698
rradius 97.3986
rwrist 4.07651
rhand -0.931208 -1.13859
rfingers 7.12502
rthumb 24.6981 -29.5645
lclavicle 6.63444e-015 -1.49089e-014
lhumerus -26.0577 9.1815 21.2039
lradius 101.796
lwrist 9.02037
lhand -7.51596 42.9796
lfingers 7.12502
lthumb 18.3745 72.1318
rfemur -6.62479 -9.12818 16.078
rtibia -1.35174e-014
rfoot -5.43017 6.11896
rtoes -12.1168
lfemur -16.2655 7.24921 -19.2241
ltibia 16.0712
lfoot -11.9837 -6.18451
ltoes -25.5783
363
root 1.25356 18.5448 0.29298 163.811 86.8389 150.546
lowerback -8.40919 -0.269318 -0.934116
upperback -3.49946 -0.159368 -0.959186
thorax 1.09586 -0.0313239 -0.476955
lowerneck -22.0351 -0.933833 2.0293
upperneck 14.6556 -2.08083 0.957508
head 8.13893 -0.756983 -0.277288
rclavicle -9.98272e-015 4.96962e-015
rhumerus -27.8882 -3.90252 -26.5079
rradius 97.399
rwrist 4.23695
rhand -1.05731 -1.07047
rfingers 7.12502
rthumb 24.5773 -29.5129
lclavicle -9.98272e-015 4.96962e-015
lhumerus -26.2938 8.89206 21.5824
lradius 101.699
lwrist 8.90253
lhand -7.43444 42.8278
lfingers 7.12502
lthumb 18.4529 71.9726
rfemur -6.62997 -9.14569 16.1055
rtibia -9.54166e-015
rfoot -5.39443 6.08669
rtoes -12.0014
lfemur -16.3172 7.27992 -19.2051
ltibia 16.1455
lfoot -11.9791 -6.24226
ltoes -25.6268
364
root 1.25282 18.5445 0.29179 163.336 86.8175 150.107
lowerback -8.39075 -0.292105 -0.978828
upperback -3.49899 -0.187097 -0.939641
thorax 1.08635 -0.0448027 -0.434184
lowerneck -22.0404 -0.932307 1.98055
upperneck 14.7582 -2.07847 1.02247
head 8.17598 -0.749981 -0.247727
rclavicle -4.29872e-015 1.98785e-015
rhumerus -28.0378 -3.76484 -26.8824
rradius 97.422
rwrist 4.43579
rhand -1.34785 -0.998838
rfingers 7.12502
rthumb 24.2988 -29.4788
lclavicle -4.29872e-015 1.98785e-015
lhumerus -26.5712 8.59096 21.9473
lradius 101.616
lwrist 8.7929
lhand -7.41495 42.7355
lfingers 7.12502
lthumb 18.4717 71.8785
rfemur -6.59053 -9.1582 16.0622
rtibia -6.36111e-015
rfoot -5.33797 6.03867
rtoes -11.9638
lfemur -16.2905 7.28321 -19.2387
ltibia 16.1736
lfoot -12.1179 -6.27692
ltoes -25.9447
